HIERARCHY
ROOT RootJoint
{
    OFFSET   0.000000   0.000000   0.000000
    CHANNELS 6 Xposition Yposition Zposition Xrotation Yrotation Zrotation
    JOINT pelvis_lowerback
    {
        OFFSET   0.000000   0.093605   0.000000
        CHANNELS 3 Xrotation Yrotation Zrotation
        JOINT lowerback_torso
        {
            OFFSET   0.000000   0.100000   0.000000
            CHANNELS 3 Xrotation Yrotation Zrotation
            JOINT torso_head
            {
                OFFSET   0.000000   0.282350   0.000000
                CHANNELS 3 Xrotation Yrotation Zrotation
                End Site
                {
                    OFFSET   0.000000   0.192650   0.000000
                }
            }
            JOINT rTorso_Clavicle
            {
                OFFSET  -0.001000   0.157500   0.000000
                CHANNELS 3 Xrotation Yrotation Zrotation
                JOINT rShoulder
                {
                    OFFSET  -0.117647   0.000000   0.000000
                    CHANNELS 3 Xrotation Yrotation Zrotation
                    JOINT rElbow
                    {
                        OFFSET  -0.245000   0.000000   0.000000
                        CHANNELS 3 Xrotation Yrotation Zrotation
                        JOINT rWrist
                        {
                            OFFSET  -0.240000   0.000000   0.000000
                            CHANNELS 3 Xrotation Yrotation Zrotation
                            End Site
                            {
                                OFFSET  -0.116353  -0.002500   0.000000
                            }
                        }
                    }
                }
            }
            JOINT lTorso_Clavicle
            {
                OFFSET   0.001000   0.157500   0.000000
                CHANNELS 3 Xrotation Yrotation Zrotation
                JOINT lShoulder
                {
                    OFFSET   0.117647   0.000000   0.000000
                    CHANNELS 3 Xrotation Yrotation Zrotation
                    JOINT lElbow
                    {
                        OFFSET   0.245000   0.000000   0.000000
                        CHANNELS 3 Xrotation Yrotation Zrotation
                        JOINT lWrist
                        {
                            OFFSET   0.240000   0.000000   0.000000
                            CHANNELS 3 Xrotation Yrotation Zrotation
                            End Site
                            {
                                OFFSET   0.116353  -0.002500   0.000000
                            }
                        }
                    }
                }
            }
        }
    }
    JOINT rHip
    {
        OFFSET  -0.100000  -0.051395   0.000000
        CHANNELS 3 Xrotation Yrotation Zrotation
        JOINT rKnee
        {
            OFFSET   0.000000  -0.410000   0.000000
            CHANNELS 3 Xrotation Yrotation Zrotation
            JOINT rAnkle
            {
                OFFSET   0.000000  -0.390000   0.000000
                CHANNELS 3 Xrotation Yrotation Zrotation
                JOINT rToeJoint
                {
                    OFFSET   0.000000  -0.050000   0.130000
                    CHANNELS 3 Xrotation Yrotation Zrotation
                    End Site
                    {
                        OFFSET  -0.010000   0.002000   0.060000
                    }
                }
            }
        }
    }
    JOINT lHip
    {
        OFFSET   0.100000  -0.051395   0.000000
        CHANNELS 3 Xrotation Yrotation Zrotation
        JOINT lKnee
        {
            OFFSET   0.000000  -0.410000   0.000000
            CHANNELS 3 Xrotation Yrotation Zrotation
            JOINT lAnkle
            {
                OFFSET   0.000000  -0.390000   0.000000
                CHANNELS 3 Xrotation Yrotation Zrotation
                JOINT lToeJoint
                {
                    OFFSET   0.000000  -0.050000   0.130000
                    CHANNELS 3 Xrotation Yrotation Zrotation
                    End Site
                    {
                        OFFSET   0.010000   0.002000   0.060000
                    }
                }
            }
        }
    }
}
MOTION
Frames: 17
Frame Time:   0.008333
 -2.134969   0.837858   4.039179  -5.770701  19.993825  -0.078345  10.783037   9.450397   0.060988   6.344259   5.099816  -2.014009   5.550724  -0.021234   1.034971  -0.702195  30.502601  -8.016885 -11.614330  39.907641  22.914018  -0.041411  51.631250   0.007107   0.736792   3.398592  -2.651226  -9.570078 -21.395930   3.025491 -25.459857 -21.869022 -36.783899 -179.962478 -73.679295 -179.965327  -2.707811  -4.998345  10.387896   1.899387 -17.989947 -15.297813  37.639552   0.001558   0.001735 -24.032369 -15.253045  -0.042051  -8.353485   0.000043  -0.001181 -26.300875  -7.956546  14.060029  37.097711   0.004253   0.015303  -6.234250  -1.414379  -3.228122   1.514029  -0.000242  -0.000039
 -2.136055   0.840094   4.036111  -5.753811  19.310437  -0.127366  10.984217   9.223433   0.138898   6.498945   4.928758  -1.563127   5.558372   0.231893   0.791801  -0.457755  31.092556  -7.953495 -10.927054  40.408749  23.729093  -0.033670  51.601072   0.005676   0.596812   3.276609  -2.637197  -9.445557 -22.491472   4.109229 -25.913859 -23.077530 -36.061129 -179.956137 -73.842618 -179.959392  -2.708482  -5.130523  10.354073   1.483506 -17.691666 -15.401627  37.476817   0.001649   0.001929 -23.370850 -14.990223   0.295696  -7.357281  -0.003060  -0.003120 -25.719407  -7.614220  14.303745  35.908208   0.004003   0.016555  -5.514175  -1.001959  -3.197214   1.523529  -0.000200  -0.000032
 -2.136998   0.842366   4.033072  -5.697950  18.633650  -0.180605  11.160344   9.000193   0.235839   6.644723   4.769397  -1.117779   5.563677   0.468789   0.548810  -0.164341  31.640712  -7.896850 -10.263516  40.901312  24.532850  -0.027081  51.592505   0.004525   0.463811   3.274464  -2.497710  -9.308096 -23.518239   5.205361 -26.315932 -24.228452 -35.352921 -179.951623 -74.000763 -179.955200  -2.723566  -5.205429  10.131560   1.065924 -17.394652 -15.500125  37.251391   0.001850   0.002278 -22.708085 -14.714512   0.600879  -7.826988  -0.001068  -0.001619 -25.156172  -7.255056  14.527635  34.673547   0.003634   0.017683  -4.778058  -0.593528  -3.148062   1.534969  -0.000169  -0.000025
 -2.137786   0.844537   4.030078  -5.624048  17.969584  -0.238401  11.326395   8.785508   0.361922   6.783103   4.618133  -0.672690   5.568807   0.689675   0.320349   0.142949  32.150562  -7.844228  -9.633946  41.371250  25.300785  -0.021759  51.586454   0.003601   0.337072   3.299907  -2.277245  -9.171880 -24.479882   6.262101 -26.689801 -25.315665 -34.685487 -179.949454 -74.146437 -179.953191  -2.739529  -5.271846   9.875687   0.651264 -17.111936 -15.593219  37.003749   0.002042   0.002636 -22.071126 -14.449480   0.884594  -8.197284   0.000160  -0.000563 -24.623448  -6.896127  14.736119  33.459232   0.003179   0.018442  -4.056557  -0.191942  -3.091620   1.545336  -0.000143  -0.000020
 -2.138427   0.846550   4.027158  -5.543493  17.321822  -0.294980  11.487415   8.577765   0.513136   6.917071   4.472153  -0.229907   5.574877   0.895888   0.108974   0.447844  32.623387  -7.796294  -9.042287  41.815993  26.025879  -0.017488  51.580835   0.002859   0.215279   3.328408  -2.023258  -9.033993 -25.380341   7.266941 -27.037014 -26.339945 -34.063510 -179.949159 -74.279616 -179.952902  -2.752476  -5.345414   9.625719   0.244492 -16.844072 -15.685315  36.753685   0.002177   0.002935 -21.475953 -14.198171   1.147875  -8.475036   0.000836   0.000129 -24.124127  -6.541548  14.928003  32.293835   0.002684   0.018765  -3.363664   0.198981  -3.035712   1.554699  -0.000121  -0.000016
 -2.138938   0.848387   4.024335  -5.462252  16.692880  -0.346807  11.644968   8.375542   0.684209   7.048244   4.329551   0.207119   5.582064   1.088424  -0.085643   0.742370  33.061008  -7.753323  -8.489199  42.235464  26.706393  -0.014058  51.575515   0.002263   0.098219   3.356241  -1.761539  -8.891321 -26.223604   8.216577 -27.357466 -27.303775 -33.487213 -179.950224 -74.401418 -179.953854  -2.762524  -5.427103   9.384309  -0.150918 -16.590433 -15.778242  36.511079   0.002244   0.003147 -20.928234 -13.961495   1.392124  -8.672267   0.001136   0.000529 -23.657715  -6.193404  15.103112  31.189322   0.002189   0.018684  -2.705720   0.576712  -2.984109   1.563220  -0.000102  -0.000013
 -2.139340   0.850055   4.021634  -5.383688  16.094117  -0.392967  11.798582   8.174680   0.872165   7.177259   4.186740   0.636677   5.590166   1.268047  -0.264502   1.022976  33.464482  -7.715252  -7.973272  42.629712  27.342786  -0.011304  51.570444   0.001784  -0.014192   3.383064  -1.505047  -8.742010 -27.014411   9.110917 -27.651913 -28.210742 -32.955675 -179.952239 -74.512887 -179.955668  -2.770417  -5.515369   9.146867  -0.528725 -16.339016 -15.869035  36.286770   0.002214   0.003215 -20.419961 -13.726547   1.620375  -8.834816   0.001268   0.000733 -23.223233  -5.858253  15.260405  30.147719   0.001720   0.018233  -2.083566   0.935475  -2.937407   1.571014  -0.000086  -0.000010
 -2.139510   0.851851   4.018980  -5.207529  15.392556  -0.375692  11.905503   7.977078   0.975806   7.254434   4.129731   1.049529   5.515943   1.514329  -0.527084   1.186123  33.727980  -7.556419  -7.531889  42.718414  28.235663  -0.002422  52.303860   0.008663  -0.185408   3.234135  -1.256673  -8.454196 -27.709065  10.044608 -27.528325 -29.087772 -31.991162 -179.943390 -74.731398 -179.947425  -2.709396  -5.812153   9.001897  -1.060257 -16.006260 -16.091112  36.077711   0.002139   0.003307 -19.867095 -13.412509   1.919205  -9.034758   0.001531   0.000913 -22.803802  -5.386388  15.357221  28.969603   0.001197   0.018557  -1.395497   1.318060  -2.963296   1.589733  -0.000065  -0.000008
 -2.139518   0.853599   4.016406  -5.016935  14.690609  -0.356771  11.996922   7.778553   1.109376   7.321396   4.074432   1.457225   5.439101   1.747994  -0.780598   1.372436  33.910109  -7.401302  -7.098256  42.789775  29.092256   0.003389  53.018873   0.014988  -0.353766   3.309813  -1.002216  -8.152981 -28.301733  10.958453 -27.353512 -29.871735 -31.039053 -179.935869 -74.956763 -179.940452  -2.669371  -5.990705   8.731465  -1.589921 -15.684484 -16.312940  35.843339   0.002114   0.003497 -19.320595 -13.106292   2.198688  -9.189887   0.001595   0.001007 -22.399722  -4.905942  15.439322  27.799887   0.000655   0.018755  -0.719483   1.698318  -2.981603   1.608706  -0.000049  -0.000007
 -2.139401   0.855229   4.013932  -4.829192  14.011500  -0.337580  12.081816   7.577677   1.271552   7.385607   4.011804   1.863771   5.367096   1.966215  -1.013997   1.565569  34.046628  -7.260028  -6.674418  42.843346  29.892622   0.006555  53.684017   0.020176  -0.516268   3.410512  -0.734044  -7.858736 -28.828903  11.826571 -27.165989 -30.587835 -30.130108 -179.931117 -75.172519 -179.936062  -2.641301  -6.107662   8.444155  -2.098075 -15.364595 -16.524101  35.610483   0.002053   0.003611 -18.794514 -12.801131   2.458542  -9.328716   0.001581   0.001025 -22.017157  -4.438306  15.508748  26.676629   0.000140   0.018618  -0.071909   2.065325  -2.996020   1.626100  -0.000036  -0.000006
 -2.139192   0.856715   4.011572  -4.649643  13.354939  -0.315140  12.164000   7.377056   1.452651   7.448197   3.941941   2.265403   5.300724   2.170076  -1.227886   1.754632  34.153530  -7.132030  -6.267385  42.884927  30.636491   0.007801  54.300805   0.024232  -0.673062   3.492604  -0.469234  -7.574151 -29.309205  12.645590 -26.975700 -31.249369 -29.270550 -179.928914 -75.375354 -179.934032  -2.618068  -6.199833   8.164959  -2.584541 -15.056569 -16.727433  35.387111   0.001967   0.003655 -18.302883 -12.509445   2.699770  -9.432927   0.001475   0.000984 -21.656769  -3.985237  15.566815  25.613778  -0.000304   0.018176   0.539865   2.417240  -3.010901   1.642018  -0.000026  -0.000005
 -2.138796   0.858033   4.009351  -4.478172  12.603214  -0.295395  12.236643   7.218969   1.644837   7.510373   3.896164   2.648429   5.241059   2.361981  -1.425719   1.935822  34.250544  -7.014576  -5.884192  42.926681  31.331279   0.007544  54.875799   0.027519  -0.823533   3.565402  -0.204358  -7.297731 -29.740554  13.413309 -26.781966 -31.857645 -28.459913 -179.928759 -75.564531 -179.933894  -2.597590  -6.277842   7.899221  -3.090261 -14.743493 -16.942306  35.176615   0.001944   0.003814 -17.859439 -12.235126   2.925226  -9.421121   0.001158   0.000757 -21.262484  -3.637203  15.598095  24.624597  -0.000453   0.019319   1.204150   2.623608  -3.019028   1.646274  -0.000021  -0.000016
 -2.138433   0.859258   4.007237  -4.314824  11.927764  -0.267289  12.316585   7.031330   1.836263   7.568345   3.827174   3.027953   5.183647   2.539778  -1.605413   2.101374  34.330695  -6.905049  -5.525125  42.961272  31.974714   0.006556  55.410025   0.029779  -0.968239   3.623304   0.027689  -7.031380 -30.148773  14.136636 -26.593607 -32.428042 -27.698366 -179.930140 -75.741730 -179.935162  -2.578048  -6.352602   7.639066  -3.555210 -14.468105 -17.139213  34.963361   0.001895   0.003875 -17.448918 -11.983484   3.132206  -9.393481   0.000878   0.000542 -20.924904  -3.222018  15.654678  23.704704  -0.000625   0.018598   1.667702   2.961294  -3.038479   1.672262  -0.000015  -0.000026
 -2.137829   0.860626   4.005025  -4.118417  11.167351  -0.150715  12.491103   6.837036   1.961064   7.502717   3.816406   3.384957   5.054357   2.798124  -1.858387   2.121137  34.155147  -6.520461  -5.223237  42.544138  32.733727  -0.003282  56.687635   0.055676  -1.128431   3.616148   0.384117  -6.704129 -30.386403  14.797454 -25.915721 -32.795123 -26.506298 -179.906132 -76.187766 -179.912811  -2.472958  -6.860302   7.447787  -4.136878 -14.077769 -17.473106  34.817592   0.001703   0.003688 -16.944403 -11.605886   3.410286  -9.547739   0.001020   0.000645 -20.643427  -2.659822  15.633648  22.781997  -0.001009   0.017791   2.332844   3.282234  -3.123016   1.421660  -0.000214   0.000062
 -2.137094   0.861976   4.002883  -3.928652  10.388746  -0.022759  12.659668   6.642188   2.109565   7.447654   3.799088   3.728040   4.926020   3.044205  -2.095341   2.160782  33.856859  -6.163744  -4.893153  42.090290  33.428254  -0.014586  57.900366   0.078046  -1.296635   3.816719   0.641805  -6.367372 -30.484216  15.415506 -25.195794 -33.032122 -25.335115 -179.884717 -76.650621 -179.892816  -2.404715  -7.125319   7.158670  -4.710631 -13.682521 -17.811867  34.662613   0.001563   0.003601 -16.431042 -11.231402   3.668720  -9.697488   0.001094   0.000748 -20.366733  -2.116802  15.599292  21.906838  -0.001248   0.017248   3.010884   3.576701  -3.194457   1.092188  -0.000358   0.000320
 -2.136295   0.863250   4.000841  -3.751341   9.607131   0.108256  12.820453   6.447222   2.272765   7.404318   3.770406   4.058046   4.806595   3.274277  -2.309488   2.214517  33.507925  -5.848441  -4.544253  41.624322  34.052850  -0.025599  59.020835   0.095224  -1.460125   3.995613   0.856121  -6.042800 -30.513610  15.984310 -24.488582 -33.199935 -24.221596 -179.869012 -77.097317 -179.878126  -2.359336  -7.253375   6.851413  -5.263008 -13.289395 -18.139993  34.507088   0.001452   0.003543 -15.934103 -10.865898   3.906426  -9.825931   0.001091   0.000811 -20.093521  -1.602393  15.562424  21.089098  -0.001354   0.016774   3.665604   3.849623  -3.259358   0.733806  -0.000425   0.000682
 -2.135473   0.864427   3.998908  -3.585953   8.818924   0.241679  12.974705   6.255069   2.439101   7.368919   3.731773   4.372004   4.696053   3.489326  -2.504475   2.273102  33.142109  -5.567594  -4.193065  41.164038  34.618033  -0.035648  60.056362   0.107723  -1.616493   4.117541   1.039007  -5.735646 -30.510557  16.508973 -23.811795 -33.326699 -23.173307 -179.858900 -77.520380 -179.868663  -2.324663  -7.318973   6.548625  -5.798220 -12.912967 -18.456732  34.351987   0.001377   0.003524 -15.469869 -10.523761   4.125537  -9.900197   0.000990   0.000801 -19.822519  -1.115136  15.527950  20.329585  -0.001340   0.016341   4.283588   4.103107  -3.321099   0.364402  -0.000421   0.001118
